{
  "accessors": [
    {
      "bufferView": 2,
      "componentType": 5126,
      "count": 2110,
      "max": [
        17.315492630004883,
        14.730722427368164,
        51.892227172851562
      ],
      "min": [
        -15.028447151184082,
        -7.0541901588439941,
        5.8402109146118164
      ],
      "type": "VEC3"
    },
    {
      "bufferView": 2,
      "byteOffset": 25320,
      "componentType": 5126,
      "count": 2110,
      "max": [
        0.99816197156906128,
        0.99767953157424927,
        0.99949848651885986
      ],
      "min": [
        -0.99792987108230591,
        -0.99998164176940918,
        -0.99990653991699219
      ],
      "type": "VEC3"
    },
    {
      "bufferView": 3,
      "componentType": 5126,
      "count": 2110,
      "max": [
        0.99901121854782104,
        0.9946446418762207,
        0.99301904439926147,
        1
      ],
      "min": [
        -0.99994713068008423,
        -0.99989020824432373,
        -0.99773585796356201,
        -1
      ],
      "type": "VEC4"
    },
    {
      "bufferView": 1,
      "componentType": 5126,
      "count": 2110,
      "max": [
        0.99187701940536499,
        0.99313300848007202
      ],
      "min": [
        0.018215000629425049,
        0.0036420000251382589
      ],
      "type": "VEC2"
    },
    {
      "bufferView": 0,
      "componentType": 5125,
      "count": 10668,
      "max": [
        2109
      ],
      "min": [
        0
      ],
      "type": "SCALAR"
    },
    {
      "bufferView": 2,
      "byteOffset": 50640,
      "componentType": 5126,
      "count": 1460,
      "max": [
        14.93779468536377,
        14.068979263305664,
        26.380439758300781
      ],
      "min": [
        -9.5012054443359375,
        -6.4022130966186523,
        -0.36814799904823303
      ],
      "type": "VEC3"
    },
    {
      "bufferView": 2,
      "byteOffset": 68160,
      "componentType": 5126,
      "count": 1460,
      "max": [
        0.99646824598312378,
        0.99795901775360107,
        0.96251022815704346
      ],
      "min": [
        -0.99676114320755005,
        -0.99907010793685913,
        -0.99906587600708008
      ],
      "type": "VEC3"
    },
    {
      "bufferView": 3,
      "byteOffset": 33760,
      "componentType": 5126,
      "count": 1460,
      "max": [
        0.99997341632843018,
        0.99840384721755981,
        0.96666157245635986,
        1
      ],
      "min": [
        -0.99909508228302002,
        -0.99898731708526611,
        -0.95699995756149292,
        -1
      ],
      "type": "VEC4"
    },
    {
      "bufferView": 1,
      "byteOffset": 16880,
      "componentType": 5126,
      "count": 1460,
      "max": [
        0.99604201316833496,
        0.68497002124786377
      ],
      "min": [
        0.42716899514198303,
        0.11643599718809128
      ],
      "type": "VEC2"
    },
    {
      "bufferView": 0,
      "byteOffset": 42672,
      "componentType": 5125,
      "count": 7644,
      "max": [
        1459
      ],
      "min": [
        0
      ],
      "type": "SCALAR"
    },
    {
      "bufferView": 2,
      "byteOffset": 85680,
      "componentType": 5126,
      "count": 3900,
      "max": [
        16.279378890991211,
        14.068674087524414,
        47.572494506835938
      ],
      "min": [
        -11.23036003112793,
        -12.941946029663086,
        23.763526916503906
      ],
      "type": "VEC3"
    },
    {
      "bufferView": 2,
      "byteOffset": 132480,
      "componentType": 5126,
      "count": 3900,
      "max": [
        0.99975824356079102,
        0.99959498643875122,
        0.99974578619003296
      ],
      "min": [
        -0.99922162294387817,
        -0.99845337867736816,
        -0.99992364645004272
      ],
      "type": "VEC3"
    },
    {
      "bufferView": 3,
      "byteOffset": 57120,
      "componentType": 5126,
      "count": 3900,
      "max": [
        0.99993294477462769,
        0.99980795383453369,
        0.99937701225280762,
        1
      ],
      "min": [
        -0.9998924732208252,
        -0.99833893775939941,
        -0.99576270580291748,
        -1
      ],
      "type": "VEC4"
    },
    {
      "bufferView": 1,
      "byteOffset": 28560,
      "componentType": 5126,
      "count": 3900,
      "max": [
        0.84141999483108521,
        0.99594998359680176
      ],
      "min": [
        0.005940999835729599,
        0.25457099080085754
      ],
      "type": "VEC2"
    },
    {
      "bufferView": 0,
      "byteOffset": 73248,
      "componentType": 5125,
      "count": 22284,
      "max": [
        3899
      ],
      "min": [
        0
      ],
      "type": "SCALAR"
    },
    {
      "bufferView": 2,
      "byteOffset": 179280,
      "componentType": 5126,
      "count": 804,
      "max": [
        11.95036792755127,
        -2.0696930885314941,
        39.487030029296875
      ],
      "min": [
        -8.6050863265991211,
        -8.8953161239624023,
        33.597572326660156
      ],
      "type": "VEC3"
    },
    {
      "bufferView": 2,
      "byteOffset": 188928,
      "componentType": 5126,
      "count": 804,
      "max": [
        0.99769163131713867,
        0.99954366683959961,
        0.99907052516937256
      ],
      "min": [
        -0.99977809190750122,
        -0.99949789047241211,
        -0.99915599822998047
      ],
      "type": "VEC3"
    },
    {
      "bufferView": 3,
      "byteOffset": 119520,
      "componentType": 5126,
      "count": 804,
      "max": [
        0.99930751323699951,
        0.99819689989089966,
        0.99978512525558472,
        1
      ],
      "min": [
        -0.99337083101272583,
        -0.99591618776321411,
        -0.77723312377929688,
        1
      ],
      "type": "VEC4"
    },
    {
      "bufferView": 1,
      "byteOffset": 59760,
      "componentType": 5126,
      "count": 804,
      "max": [
        0.99800801277160645,
        0.99168401956558228
      ],
      "min": [
        -0.019641000777482986,
        0.019880000501871109
      ],
      "type": "VEC2"
    },
    {
      "bufferView": 0,
      "byteOffset": 162384,
      "componentType": 5125,
      "count": 4560,
      "max": [
        803
      ],
      "min": [
        0
      ],
      "type": "SCALAR"
    }
  ],
  "asset": {
    "extras": {
      "author": "Thuy NguyenThanh (https://sketchfab.com/thanhthuythanhthien)",
      "license": "CC-BY-4.0 (http://creativecommons.org/licenses/by/4.0/)",
      "source": "https://sketchfab.com/models/74766b83dc8d4b189a980a9894232c56",
      "title": "Pig"
    },
    "generator": "Sketchfab-3.18.6",
    "version": "2.0"
  },
  "bufferViews": [
    {
      "buffer": 0,
      "byteLength": 180624,
      "byteOffset": 0,
      "name": "floatBufferViews",
      "target": 34963
    },
    {
      "buffer": 0,
      "byteLength": 66192,
      "byteOffset": 180624,
      "byteStride": 8,
      "name": "floatBufferViews",
      "target": 34962
    },
    {
      "buffer": 0,
      "byteLength": 198576,
      "byteOffset": 246816,
      "byteStride": 12,
      "name": "floatBufferViews",
      "target": 34962
    },
    {
      "buffer": 0,
      "byteLength": 132384,
      "byteOffset": 445392,
      "byteStride": 16,
      "name": "floatBufferViews",
      "target": 34962
    }
  ],
  "buffers": [
    {
      "byteLength": 577776,
      "uri": "scene.bin"
    }
  ],
  "extensionsUsed": [
    "KHR_materials_unlit"
  ],
  "images": [
    {
      "uri": "textures/lambert4SG_baseColor.jpeg"
    },
    {
      "uri": "textures/lambert2SG_baseColor.jpeg"
    }
  ],
  "materials": [
    {
      "doubleSided": true,
      "emissiveFactor": [
        0,
        0,
        0
      ],
      "extensions": {
        "KHR_materials_unlit": {}
      },
      "name": "lambert2SG",
      "pbrMetallicRoughness": {
        "baseColorFactor": [
          1,
          1,
          1,
          1
        ],
        "baseColorTexture": {
          "index": 1,
          "texCoord": 0
        },
        "metallicFactor": 0,
        "roughnessFactor": 1
      }
    },
    {
      "doubleSided": true,
      "emissiveFactor": [
        0,
        0,
        0
      ],
      "extensions": {
        "KHR_materials_unlit": {}
      },
      "name": "lambert4SG",
      "pbrMetallicRoughness": {
        "baseColorFactor": [
          1,
          1,
          1,
          1
        ],
        "baseColorTexture": {
          "index": 0,
          "texCoord": 0
        },
        "metallicFactor": 0,
        "roughnessFactor": 1
      }
    }
  ],
  "meshes": [
    {
      "primitives": [
        {
          "attributes": {
            "NORMAL": 1,
            "POSITION": 0,
            "TANGENT": 2,
            "TEXCOORD_0": 3
          },
          "indices": 4,
          "material": 0,
          "mode": 4
        }
      ]
    },
    {
      "primitives": [
        {
          "attributes": {
            "NORMAL": 6,
            "POSITION": 5,
            "TANGENT": 7,
            "TEXCOORD_0": 8
          },
          "indices": 9,
          "material": 0,
          "mode": 4
        }
      ]
    },
    {
      "primitives": [
        {
          "attributes": {
            "NORMAL": 11,
            "POSITION": 10,
            "TANGENT": 12,
            "TEXCOORD_0": 13
          },
          "indices": 14,
          "material": 0,
          "mode": 4
        }
      ]
    },
    {
      "primitives": [
        {
          "attributes": {
            "NORMAL": 16,
            "POSITION": 15,
            "TANGENT": 17,
            "TEXCOORD_0": 18
          },
          "indices": 19,
          "material": 1,
          "mode": 4
        }
      ]
    }
  ],
  "nodes": [
    {
      "children": [
        1
      ],
      "name": "RootNode (gltf orientation matrix)",
      "rotation": [
        -0.70710678118654746,
        -0,
        -0,
        0.70710678118654757
      ]
    },
    {
      "children": [
        2
      ],
      "name": "RootNode (model correction matrix)"
    },
    {
      "children": [
        3,
        4,
        5,
        6
      ],
      "name": "pig.obj.cleaner.gles"
    },
    {
      "mesh": 0,
      "name": ""
    },
    {
      "mesh": 1,
      "name": ""
    },
    {
      "mesh": 2,
      "name": ""
    },
    {
      "mesh": 3,
      "name": ""
    }
  ],
  "samplers": [
    {
      "magFilter": 9729,
      "minFilter": 9987,
      "wrapS": 10497,
      "wrapT": 10497
    }
  ],
  "scene": 0,
  "scenes": [
    {
      "name": "OSG_Scene",
      "nodes": [
        0
      ]
    }
  ],
  "textures": [
    {
      "sampler": 0,
      "source": 0
    },
    {
      "sampler": 0,
      "source": 1
    }
  ]
}

